<svg xmlns="http://www.w3.org/2000/svg" xmlns:xlink="http://www.w3.org/1999/xlink"  zoomAndPan="magnify" viewBox="330 20 770 770"  preserveAspectRatio="xMidYMid meet" version="1.0"><rect width="100%" height="100%" fill="#F3E9D7"/><defs><clipPath id="eecf277621"><path d="M 655 474 L 977 474 L 977 776.839844 L 655 776.839844 Z M 655 474 " clip-rule="nonzero"/></clipPath><clipPath id="3f7b66c7f1"><path d="M 347.839844 340 L 650 340 L 650 662 L 347.839844 662 Z M 347.839844 340 " clip-rule="nonzero"/></clipPath><clipPath id="6be131a772"><path d="M 789 148 L 1091.839844 148 L 1091.839844 470 L 789 470 Z M 789 148 " clip-rule="nonzero"/></clipPath><clipPath id="667fcd22bf"><path d="M 463 32.839844 L 785 32.839844 L 785 335 L 463 335 Z M 463 32.839844 " clip-rule="nonzero"/></clipPath></defs><g clip-path="url(#eecf277621)"><path fill="#16302B" d="M 937.464844 557.339844 C 938.375 556.125 939.285156 554.757812 940.195312 553.390625 C 940.652344 552.632812 941.109375 551.875 941.714844 551.113281 C 942.472656 549.898438 943.234375 548.835938 943.992188 547.621094 C 944.449219 546.863281 945.054688 546.105469 945.511719 545.195312 C 946.269531 544.132812 946.875 542.917969 947.636719 541.703125 C 948.089844 540.941406 948.546875 540.03125 949.152344 539.273438 C 949.914062 538.058594 950.519531 536.996094 951.128906 535.78125 C 951.582031 535.023438 952.039062 534.113281 952.492188 533.351562 C 953.253906 532.136719 953.859375 530.773438 954.617188 529.558594 C 955.074219 528.796875 955.378906 528.039062 955.832031 527.433594 C 956.742188 525.761719 957.503906 524.246094 958.261719 522.574219 C 958.414062 522.117188 958.71875 521.816406 958.871094 521.359375 C 959.78125 519.386719 960.84375 517.261719 961.753906 515.289062 C 962.058594 514.679688 962.359375 514.074219 962.664062 513.464844 C 963.273438 512.101562 963.878906 510.582031 964.484375 509.214844 C 964.789062 508.457031 965.09375 507.695312 965.546875 506.785156 C 966.15625 505.421875 966.613281 504.207031 967.066406 502.839844 C 967.371094 501.929688 967.675781 501.167969 968.128906 500.257812 C 968.585938 499.042969 969.039062 497.679688 969.648438 496.464844 C 969.953125 495.550781 970.253906 494.792969 970.558594 493.882812 C 971.015625 492.515625 971.46875 491.300781 971.925781 489.9375 C 972.226562 489.175781 972.53125 488.265625 972.835938 487.507812 C 973.292969 486.140625 973.746094 484.621094 974.203125 483.257812 C 974.355469 482.496094 974.65625 481.738281 974.808594 481.128906 C 975.417969 479.15625 975.871094 477.335938 976.480469 475.363281 C 976.480469 475.058594 976.480469 474.90625 976.628906 474.601562 L 789.300781 661.933594 L 720.074219 731.160156 L 707.929688 719.015625 C 705.652344 719.015625 703.375 718.863281 701.097656 718.710938 C 700.644531 718.710938 700.339844 718.710938 699.882812 718.710938 C 697.757812 718.710938 695.480469 718.40625 693.355469 718.253906 C 692.445312 718.253906 691.6875 718.253906 690.777344 718.105469 C 688.953125 717.953125 687.132812 717.800781 685.3125 717.496094 C 684.550781 717.496094 683.640625 717.34375 682.882812 717.191406 C 680.605469 716.890625 678.328125 716.585938 676.050781 716.28125 C 675.746094 716.28125 675.441406 716.28125 675.292969 716.28125 C 672.710938 715.976562 670.28125 715.523438 667.699219 715.066406 C 666.941406 715.066406 666.183594 714.765625 665.421875 714.613281 C 663.601562 714.308594 661.78125 714.003906 659.957031 713.550781 C 659.046875 713.398438 658.289062 713.246094 657.378906 713.09375 C 656.769531 713.09375 656.316406 712.941406 655.707031 712.789062 L 719.921875 777.003906 L 932.453125 564.472656 C 933.820312 562.652344 935.1875 560.828125 936.402344 559.007812 C 936.855469 558.402344 937.160156 557.792969 937.617188 557.339844 Z M 937.464844 557.339844 " fill-opacity="1" fill-rule="nonzero"/></g><path fill="#16302B" d="M 725.84375 711.121094 C 725.996094 711.121094 726.148438 711.121094 726.300781 711.121094 C 726.753906 711.121094 727.363281 711.121094 727.816406 711.121094 C 727.96875 711.121094 728.121094 711.121094 728.425781 711.121094 L 764.25 675.292969 C 764.097656 675.292969 763.796875 675.292969 763.644531 675.292969 C 762.882812 675.292969 761.972656 675.597656 761.214844 675.597656 C 759.847656 675.75 758.332031 676.050781 756.964844 676.203125 C 755.902344 676.203125 754.992188 676.507812 753.929688 676.660156 C 752.714844 676.660156 751.5 676.964844 750.4375 677.117188 C 749.222656 677.117188 748.007812 677.417969 746.792969 677.417969 C 745.882812 677.417969 744.820312 677.570312 743.910156 677.722656 C 742.542969 677.722656 741.175781 678.027344 739.65625 678.027344 C 738.898438 678.027344 738.292969 678.027344 737.53125 678.027344 C 735.863281 678.027344 734.191406 678.179688 732.675781 678.328125 C 732.371094 678.328125 732.066406 678.328125 731.914062 678.328125 C 727.96875 678.480469 723.871094 678.632812 719.921875 678.632812 C 713.699219 678.632812 707.476562 678.328125 701.25 678.027344 C 700.796875 678.027344 700.492188 678.027344 700.035156 678.027344 C 698.367188 678.027344 696.847656 677.722656 695.179688 677.570312 C 694.417969 677.570312 693.8125 677.570312 693.054688 677.417969 C 691.6875 677.417969 690.167969 677.117188 688.800781 676.964844 C 687.890625 676.964844 686.980469 676.8125 686.070312 676.660156 C 684.855469 676.507812 683.488281 676.355469 682.273438 676.203125 C 681.210938 676.054688 679.996094 675.902344 678.933594 675.75 C 677.871094 675.597656 676.808594 675.445312 675.59375 675.292969 C 675.59375 675.292969 675.292969 675.292969 675.292969 675.292969 L 675.746094 675.75 L 662.386719 672.863281 L 661.171875 672.5625 C 654.191406 671.042969 647.511719 669.222656 640.679688 667.246094 C 633.542969 665.121094 626.5625 662.695312 619.730469 659.960938 C 612.898438 657.230469 615.175781 658.140625 612.898438 657.230469 C 592.554688 648.574219 573.277344 637.339844 555.210938 623.832031 C 552.628906 621.855469 550.203125 619.882812 547.621094 617.910156 C 547.011719 617.453125 546.558594 617 545.949219 616.542969 C 543.976562 615.027344 542.15625 613.355469 540.183594 611.6875 C 539.421875 610.925781 538.664062 610.320312 537.90625 609.5625 C 536.234375 608.195312 534.714844 606.675781 533.046875 605.308594 C 532.136719 604.550781 531.378906 603.640625 530.464844 602.730469 C 529.101562 601.363281 527.582031 599.996094 526.214844 598.628906 C 525.304688 597.71875 524.394531 596.65625 523.484375 595.746094 C 522.117188 594.378906 520.902344 593.011719 519.535156 591.648438 C 518.625 590.585938 517.714844 589.523438 516.652344 588.460938 C 515.4375 587.09375 514.222656 585.878906 513.007812 584.511719 C 512.097656 583.449219 511.1875 582.234375 510.125 581.171875 C 509.0625 579.804688 507.847656 578.589844 506.785156 577.226562 C 505.875 576.011719 504.960938 574.796875 503.898438 573.582031 C 502.835938 572.367188 501.925781 571 500.863281 569.785156 L 426.933594 495.855469 C 458.355469 596.960938 540.03125 675.140625 643.410156 701.554688 C 664.816406 707.023438 686.980469 710.210938 709.296875 710.96875 C 713.242188 710.96875 716.429688 711.121094 719.46875 711.121094 C 722.503906 711.121094 723.414062 711.121094 725.539062 711.121094 Z M 725.84375 711.121094 " fill-opacity="1" fill-rule="nonzero"/><path fill="#16302B" d="M 413.574219 407.199219 C 413.574219 407.351562 413.574219 407.65625 413.574219 407.808594 C 413.574219 408.414062 413.574219 408.871094 413.574219 409.476562 C 413.574219 409.78125 413.574219 410.085938 413.574219 410.234375 C 413.574219 410.84375 413.574219 411.300781 413.574219 411.90625 C 413.574219 412.210938 413.574219 412.511719 413.574219 412.664062 C 413.574219 412.96875 413.574219 413.121094 413.574219 413.425781 L 449.402344 449.25 C 449.402344 449.097656 449.402344 448.949219 449.402344 448.796875 C 448.945312 445.609375 448.488281 442.417969 448.035156 439.078125 C 448.035156 438.320312 447.882812 437.5625 447.730469 436.800781 C 447.425781 433.765625 447.125 430.730469 446.820312 427.847656 C 446.820312 427.542969 446.820312 427.238281 446.820312 426.785156 C 446.515625 423.445312 446.363281 420.253906 446.210938 416.914062 C 446.210938 416.15625 446.210938 415.398438 446.210938 414.640625 C 446.210938 411.300781 446.0625 407.960938 446.0625 404.769531 C 446.0625 389.894531 447.273438 375.015625 449.703125 360.292969 L 449.25 360.746094 L 452.132812 347.386719 L 452.4375 346.171875 C 455.625 331.902344 459.722656 318.089844 465.035156 304.730469 C 473.992188 281.804688 486.136719 260.25 501.167969 240.210938 C 503.140625 237.628906 505.113281 235.050781 507.085938 232.621094 C 507.542969 232.164062 508 231.558594 508.453125 231.101562 C 510.125 229.128906 511.640625 227.15625 513.3125 225.332031 C 513.917969 224.574219 514.679688 223.816406 515.285156 223.207031 C 516.804688 221.539062 518.167969 219.867188 519.6875 218.351562 C 520.445312 217.441406 521.359375 216.679688 522.117188 215.769531 C 523.484375 214.25 524.847656 212.886719 526.367188 211.367188 C 527.277344 210.457031 528.1875 209.699219 529.101562 208.785156 C 530.464844 207.421875 531.832031 206.054688 533.351562 204.6875 C 534.261719 203.777344 535.324219 203.019531 536.234375 202.105469 C 537.601562 200.890625 538.96875 199.527344 540.484375 198.3125 C 541.394531 197.402344 542.457031 196.640625 543.523438 195.730469 C 545.039062 194.515625 546.40625 193.300781 547.925781 192.085938 C 548.988281 191.328125 549.898438 190.570312 550.960938 189.660156 C 552.476562 188.445312 553.84375 187.382812 555.363281 186.167969 L 596.957031 144.570312 L 629.140625 112.386719 C 528.039062 143.8125 449.855469 225.484375 423.441406 328.867188 C 417.976562 350.273438 414.789062 372.4375 414.027344 394.75 C 414.027344 398.699219 413.878906 401.886719 413.878906 404.921875 C 413.878906 407.960938 413.878906 406.441406 413.878906 407.199219 Z M 413.574219 407.199219 " fill-opacity="1" fill-rule="nonzero"/><path fill="#16302B" d="M 713.699219 98.726562 C 713.546875 98.726562 713.394531 98.726562 713.242188 98.726562 C 712.789062 98.726562 712.179688 98.726562 711.726562 98.726562 C 711.574219 98.726562 711.421875 98.726562 711.117188 98.726562 L 675.292969 134.550781 C 675.59375 134.550781 675.898438 134.550781 676.203125 134.550781 C 676.65625 134.550781 677.113281 134.550781 677.71875 134.402344 C 679.542969 134.097656 681.363281 133.792969 683.183594 133.640625 C 683.640625 133.640625 684.097656 133.640625 684.703125 133.488281 C 686.523438 133.1875 688.5 133.035156 690.320312 132.882812 C 690.777344 132.882812 691.230469 132.882812 691.6875 132.882812 C 693.660156 132.730469 695.480469 132.578125 697.457031 132.273438 C 697.910156 132.273438 698.214844 132.273438 698.667969 132.273438 C 700.796875 132.125 702.769531 131.972656 704.894531 131.820312 C 705.199219 131.820312 705.347656 131.820312 705.652344 131.820312 C 715.066406 131.363281 724.628906 131.363281 734.191406 131.820312 C 734.496094 131.820312 734.953125 131.820312 735.253906 131.820312 C 737.230469 131.820312 739.050781 132.125 741.023438 132.125 C 741.632812 132.125 742.238281 132.125 742.847656 132.125 C 744.515625 132.125 746.1875 132.425781 747.855469 132.578125 C 748.613281 132.578125 749.222656 132.578125 749.980469 132.882812 C 751.5 133.035156 753.167969 133.1875 754.6875 133.488281 C 755.445312 133.488281 756.207031 133.640625 756.964844 133.792969 C 758.480469 133.945312 760 134.25 761.519531 134.402344 C 762.277344 134.402344 763.035156 134.703125 763.796875 134.703125 C 763.949219 134.703125 764.097656 134.703125 764.402344 134.703125 L 763.949219 134.25 L 777.304688 137.132812 L 778.519531 137.4375 C 817.082031 145.9375 852.753906 162.332031 884.484375 186.167969 C 887.0625 188.140625 889.492188 190.113281 892.074219 192.085938 C 892.679688 192.542969 893.289062 193.148438 894.046875 193.605469 C 895.867188 195.125 897.691406 196.640625 899.511719 198.160156 C 900.269531 198.765625 901.03125 199.527344 901.789062 200.285156 C 903.460938 201.804688 904.976562 203.167969 906.648438 204.6875 C 907.558594 205.445312 908.316406 206.207031 909.074219 207.117188 C 910.59375 208.484375 912.113281 210 913.480469 211.367188 C 914.390625 212.277344 915.148438 213.1875 916.058594 213.949219 C 917.425781 215.3125 918.792969 216.679688 920.15625 218.199219 C 921.070312 219.109375 921.828125 220.171875 922.738281 221.082031 C 923.953125 222.449219 925.320312 223.96875 926.535156 225.332031 C 927.445312 226.394531 928.203125 227.308594 929.113281 228.371094 C 930.328125 229.734375 931.542969 231.253906 932.757812 232.621094 C 933.515625 233.683594 934.429688 234.746094 935.1875 235.65625 C 936.402344 237.175781 937.464844 238.539062 938.679688 240.058594 L 1012.609375 313.988281 C 981.183594 212.886719 899.511719 134.703125 796.128906 108.289062 C 774.726562 102.824219 752.5625 99.636719 730.246094 98.878906 C 726.300781 98.878906 723.109375 98.726562 720.074219 98.726562 C 717.039062 98.726562 716.128906 98.726562 714.003906 98.726562 Z M 713.699219 98.726562 " fill-opacity="1" fill-rule="nonzero"/><path fill="#16302B" d="M 1026.121094 402.796875 C 1026.121094 402.644531 1026.121094 402.34375 1026.121094 402.191406 C 1026.121094 401.582031 1026.121094 401.128906 1026.121094 400.519531 C 1026.121094 400.21875 1026.121094 399.914062 1026.121094 399.761719 C 1026.121094 399.152344 1026.121094 398.699219 1026.121094 398.089844 C 1026.121094 397.789062 1026.121094 397.484375 1026.121094 397.332031 C 1026.121094 397.027344 1026.121094 396.878906 1026.121094 396.574219 L 990.292969 360.746094 C 990.292969 360.898438 990.292969 361.050781 990.292969 361.203125 C 990.75 364.390625 991.203125 367.578125 991.660156 370.765625 C 991.660156 371.523438 991.8125 372.285156 991.964844 373.042969 C 992.265625 376.078125 992.570312 379.117188 992.875 382 C 992.875 382.304688 992.875 382.605469 992.875 383.0625 C 993.179688 386.402344 993.328125 389.589844 993.480469 392.929688 C 993.480469 393.6875 993.480469 394.449219 993.480469 395.207031 C 993.480469 398.546875 993.632812 401.886719 993.632812 405.074219 C 993.632812 419.953125 992.417969 434.828125 989.988281 449.554688 L 990.445312 449.097656 L 987.5625 462.457031 L 987.257812 463.671875 C 978.757812 502.230469 962.359375 537.90625 938.527344 569.636719 C 936.554688 572.214844 934.578125 574.796875 932.605469 577.226562 C 932.152344 577.679688 931.695312 578.289062 931.238281 578.742188 C 929.570312 580.71875 928.050781 582.691406 926.382812 584.511719 C 925.773438 585.269531 925.167969 585.878906 924.410156 586.636719 C 922.890625 588.308594 921.371094 589.976562 919.855469 591.648438 C 919.09375 592.558594 918.335938 593.316406 917.425781 594.074219 C 916.058594 595.59375 914.542969 597.113281 913.175781 598.480469 C 912.265625 599.390625 911.351562 600.148438 910.441406 601.058594 C 909.074219 602.425781 907.710938 603.792969 906.191406 605.15625 C 905.28125 606.070312 904.21875 606.828125 903.308594 607.738281 C 901.941406 608.953125 900.421875 610.320312 899.058594 611.535156 C 898.144531 612.445312 897.082031 613.203125 896.019531 614.113281 C 894.503906 615.328125 893.136719 616.542969 891.617188 617.757812 C 890.554688 618.515625 889.492188 619.429688 888.582031 620.1875 C 887.0625 621.402344 885.699219 622.464844 884.179688 623.679688 L 810.25 697.609375 C 911.351562 666.183594 989.535156 584.511719 1015.949219 481.128906 C 1021.414062 459.726562 1024.601562 437.5625 1025.363281 415.246094 C 1025.363281 411.300781 1025.511719 408.109375 1025.511719 405.074219 C 1025.511719 402.039062 1025.511719 403.558594 1025.511719 402.796875 Z M 1026.121094 402.796875 " fill-opacity="1" fill-rule="nonzero"/><g clip-path="url(#3f7b66c7f1)"><path fill="#16302B" d="M 567.507812 622.617188 C 568.875 623.527344 570.089844 624.4375 571.453125 625.347656 C 572.214844 625.804688 572.820312 626.257812 573.578125 626.714844 C 574.792969 627.472656 576.007812 628.234375 577.070312 628.992188 C 577.832031 629.449219 578.589844 629.902344 579.347656 630.511719 C 580.5625 631.269531 581.625 632.027344 582.839844 632.636719 C 583.597656 633.089844 584.359375 633.546875 585.269531 634 C 586.484375 634.761719 587.699219 635.367188 588.914062 636.128906 C 589.671875 636.582031 590.429688 637.039062 591.1875 637.492188 C 592.402344 638.253906 593.769531 638.859375 595.136719 639.617188 C 595.894531 639.921875 596.503906 640.378906 597.261719 640.679688 C 598.933594 641.59375 600.601562 642.351562 602.269531 643.261719 C 602.574219 643.414062 602.878906 643.566406 603.183594 643.71875 C 605.15625 644.78125 607.28125 645.691406 609.253906 646.601562 C 609.863281 646.90625 610.46875 647.207031 611.078125 647.359375 C 612.59375 647.96875 613.960938 648.726562 615.480469 649.335938 C 616.238281 649.636719 616.996094 649.941406 617.757812 650.246094 C 619.121094 650.851562 620.335938 651.308594 621.703125 651.914062 C 622.613281 652.21875 623.371094 652.523438 624.285156 652.824219 C 625.5 653.28125 626.863281 653.738281 628.078125 654.34375 C 628.988281 654.648438 629.75 654.953125 630.660156 655.253906 C 632.027344 655.710938 633.242188 656.164062 634.605469 656.621094 C 635.367188 656.925781 636.277344 657.226562 637.035156 657.53125 C 638.402344 657.988281 639.921875 658.441406 641.285156 658.898438 C 642.046875 659.050781 642.804688 659.355469 643.410156 659.503906 C 645.386719 660.113281 647.207031 660.566406 649.179688 661.175781 C 649.484375 661.175781 649.636719 661.175781 649.9375 661.328125 L 462.609375 473.996094 L 393.382812 404.769531 L 405.527344 392.625 C 405.527344 390.347656 405.679688 388.070312 405.832031 385.796875 C 405.832031 385.339844 405.832031 385.035156 405.832031 384.582031 C 405.832031 382.457031 406.136719 380.179688 406.285156 378.054688 C 406.285156 377.140625 406.285156 376.382812 406.4375 375.472656 C 406.589844 373.648438 406.742188 371.828125 407.046875 370.007812 C 407.046875 369.246094 407.199219 368.335938 407.347656 367.578125 C 407.652344 365.300781 407.957031 363.023438 408.261719 360.746094 C 408.261719 360.441406 408.261719 360.140625 408.261719 359.988281 C 408.5625 357.40625 409.019531 354.976562 409.476562 352.398438 C 409.476562 351.636719 409.777344 350.878906 409.929688 350.121094 C 410.234375 348.296875 410.539062 346.476562 410.992188 344.65625 C 411.144531 343.742188 411.296875 342.984375 411.449219 342.074219 C 411.449219 341.46875 411.601562 341.011719 411.753906 340.402344 L 347.839844 404.921875 L 560.371094 617.453125 C 562.195312 618.820312 564.015625 620.1875 565.835938 621.402344 C 566.445312 621.855469 566.898438 622.160156 567.507812 622.617188 Z M 567.507812 622.617188 " fill-opacity="1" fill-rule="nonzero"/></g><g clip-path="url(#6be131a772)"><path fill="#16302B" d="M 873.855469 188.445312 C 873.402344 188.140625 872.792969 187.683594 872.339844 187.382812 C 870.972656 186.472656 869.605469 185.558594 868.238281 184.648438 C 867.480469 184.195312 866.875 183.738281 866.113281 183.28125 C 864.898438 182.523438 863.683594 181.765625 862.472656 180.855469 C 861.710938 180.398438 860.953125 179.941406 860.195312 179.488281 C 858.980469 178.726562 857.765625 177.96875 856.703125 177.363281 C 855.941406 176.90625 855.183594 176.453125 854.425781 175.996094 C 853.210938 175.238281 851.996094 174.628906 850.78125 173.871094 C 850.023438 173.414062 849.261719 172.960938 848.503906 172.65625 C 847.136719 171.898438 845.925781 171.289062 844.558594 170.53125 C 843.949219 170.226562 843.191406 169.773438 842.585938 169.46875 C 840.914062 168.558594 839.09375 167.644531 837.421875 166.886719 C 837.117188 166.886719 836.816406 166.582031 836.511719 166.433594 C 834.539062 165.371094 832.414062 164.457031 830.4375 163.546875 C 829.832031 163.242188 829.226562 163.09375 828.769531 162.789062 C 827.25 162.179688 825.886719 161.421875 824.367188 160.816406 C 823.609375 160.511719 822.847656 160.207031 822.089844 159.902344 C 820.722656 159.296875 819.507812 158.839844 818.144531 158.234375 C 817.382812 157.929688 816.472656 157.628906 815.714844 157.324219 C 814.5 156.867188 813.132812 156.414062 811.765625 155.804688 C 810.855469 155.5 810.097656 155.199219 809.1875 154.894531 C 807.820312 154.4375 806.605469 153.984375 805.238281 153.527344 C 804.480469 153.226562 803.570312 152.921875 802.808594 152.617188 C 801.445312 152.160156 799.925781 151.707031 798.558594 151.25 C 797.800781 150.949219 797.042969 150.796875 796.28125 150.492188 C 794.460938 149.886719 792.640625 149.429688 790.664062 148.972656 C 790.363281 148.972656 790.058594 148.820312 789.753906 148.671875 L 977.085938 336 C 977.085938 336 989.6875 348.601562 989.6875 348.601562 L 1025.816406 384.734375 C 1025.816406 384.734375 1046.3125 405.226562 1046.3125 405.226562 L 1034.167969 417.371094 C 1034.167969 419.648438 1034.015625 421.925781 1033.863281 424.203125 C 1033.863281 424.65625 1033.863281 424.960938 1033.863281 425.417969 C 1033.863281 427.542969 1033.558594 429.820312 1033.40625 431.945312 C 1033.40625 432.855469 1033.40625 433.613281 1033.253906 434.527344 C 1033.101562 436.347656 1032.953125 438.167969 1032.648438 439.992188 C 1032.648438 440.75 1032.496094 441.660156 1032.34375 442.417969 C 1032.039062 444.695312 1031.738281 446.972656 1031.433594 449.25 C 1031.433594 449.554688 1031.433594 449.859375 1031.433594 450.011719 C 1031.128906 452.589844 1030.675781 455.019531 1030.21875 457.601562 C 1030.21875 458.359375 1029.914062 459.117188 1029.765625 459.878906 C 1029.460938 461.699219 1029.15625 463.519531 1028.699219 465.34375 C 1028.550781 466.253906 1028.398438 467.011719 1028.246094 467.921875 C 1028.246094 468.53125 1028.09375 468.984375 1027.941406 469.59375 L 1092.15625 405.378906 L 1028.398438 341.617188 C 1028.398438 341.617188 1027.941406 341.164062 1027.941406 341.164062 L 879.777344 193 C 877.957031 191.632812 876.132812 190.265625 874.3125 189.050781 Z M 873.855469 188.445312 " fill-opacity="1" fill-rule="nonzero"/></g><g clip-path="url(#667fcd22bf)"><path fill="#16302B" d="M 503.292969 250.988281 C 502.988281 251.445312 502.535156 252.050781 502.230469 252.507812 C 501.320312 253.875 500.40625 255.238281 499.34375 256.605469 C 498.890625 257.363281 498.433594 257.972656 497.980469 258.730469 C 497.21875 259.945312 496.308594 261.160156 495.550781 262.375 C 495.09375 263.132812 494.640625 263.894531 494.183594 264.652344 C 493.425781 265.867188 492.664062 267.082031 492.058594 268.144531 C 491.601562 268.902344 491.148438 269.660156 490.691406 270.421875 C 489.933594 271.636719 489.324219 272.851562 488.566406 274.0625 C 488.113281 274.824219 487.65625 275.582031 487.351562 276.339844 C 486.59375 277.707031 485.835938 278.921875 485.226562 280.289062 C 484.921875 280.894531 484.46875 281.65625 484.164062 282.261719 C 483.253906 283.933594 482.34375 285.753906 481.582031 287.421875 C 481.582031 287.726562 481.28125 288.03125 481.128906 288.183594 C 480.066406 290.15625 479.15625 292.28125 478.242188 294.253906 C 477.941406 294.863281 477.789062 295.46875 477.484375 295.925781 C 476.878906 297.441406 476.117188 298.960938 475.511719 300.328125 C 475.207031 301.085938 474.902344 301.84375 474.601562 302.605469 C 473.992188 303.96875 473.539062 305.183594 472.929688 306.550781 C 472.628906 307.308594 472.324219 308.222656 472.019531 308.980469 C 471.5625 310.195312 471.109375 311.5625 470.5 312.773438 C 470.199219 313.6875 469.894531 314.445312 469.589844 315.355469 C 469.136719 316.722656 468.679688 317.9375 468.226562 319.304688 C 467.921875 320.0625 467.617188 320.972656 467.3125 321.730469 C 466.859375 323.097656 466.402344 324.617188 465.949219 325.984375 C 465.644531 326.742188 465.492188 327.5 465.1875 328.257812 C 464.582031 330.082031 464.125 332.054688 463.519531 333.875 C 463.519531 334.179688 463.367188 334.484375 463.214844 334.789062 L 650.546875 147.457031 C 650.546875 147.457031 663.148438 134.855469 663.148438 134.855469 L 699.277344 98.726562 L 719.769531 78.230469 L 731.914062 90.375 C 734.191406 90.375 736.46875 90.527344 738.746094 90.679688 C 739.203125 90.679688 739.507812 90.679688 739.960938 90.679688 C 742.085938 90.679688 744.363281 90.984375 746.488281 91.136719 C 747.398438 91.136719 748.160156 91.136719 749.070312 91.285156 C 750.890625 91.4375 752.714844 91.589844 754.535156 91.894531 C 755.292969 91.894531 756.207031 92.046875 756.964844 92.199219 C 759.242188 92.5 761.519531 92.804688 763.949219 93.109375 C 764.25 93.109375 764.402344 93.109375 764.707031 93.109375 C 767.289062 93.414062 769.714844 93.867188 772.296875 94.324219 C 773.054688 94.324219 773.816406 94.625 774.574219 94.777344 C 776.394531 95.082031 778.21875 95.386719 780.039062 95.839844 C 780.796875 95.992188 781.707031 96.144531 782.46875 96.296875 C 783.074219 96.296875 783.53125 96.449219 784.136719 96.601562 L 719.769531 32.992188 L 656.011719 96.753906 C 656.011719 96.753906 653.886719 98.878906 653.886719 98.878906 L 507.390625 245.371094 C 506.023438 247.195312 504.660156 249.015625 503.445312 250.835938 Z M 503.292969 250.988281 " fill-opacity="1" fill-rule="nonzero"/></g></svg>

